<?xml version="1.0" encoding="UTF-8"?>
<svg width="3000px" height="405px" viewBox="0 0 3000 405" version="1.1" xmlns="http://www.w3.org/2000/svg" xmlns:xlink="http://www.w3.org/1999/xlink">
    <!-- Generator: Sketch 48.1 (47250) - http://www.bohemiancoding.com/sketch -->
    <title>Artboard@2x</title>
    <desc>Created with Sketch.</desc>
    <defs>
        <linearGradient x1="50%" y1="0%" x2="50%" y2="100%" id="linearGradient-1">
            <stop stop-color="#000000" stop-opacity="0" offset="0%"></stop>
            <stop stop-color="#000000" offset="100%"></stop>
        </linearGradient>
    </defs>
    <g id="Page-1" stroke="none" stroke-width="1" fill="none" fill-rule="evenodd" opacity="0.22">
        <g id="Artboard" fill="url(#linearGradient-1)">
            <g id="Memphis-shapes" transform="translate(864.000000, 0.000000)">
                <g transform="translate(50.000000, 0.000000)">
                    <path d="M6.92220677,220.860907 L3.68517845,217.623698 C3.23054217,217.169036 2.49343112,217.169036 2.03879484,217.623698 C1.58415855,218.07836 1.58415855,218.815512 2.03879484,219.270173 L5.27582315,222.507382 L2.09453377,225.688849 C1.63989749,226.14351 1.63989749,226.880662 2.09453377,227.335324 C2.54917005,227.789986 3.28628111,227.789986 3.74091739,227.335324 L6.92220677,224.153858 L10.1592351,227.391066 C10.6138714,227.845727 11.3509824,227.845727 11.8056187,227.391066 C12.260255,226.936404 12.260255,226.199253 11.8056187,225.74459 L8.56859039,222.507382 L11.8613577,219.214431 C12.3159939,218.75977 12.3159939,218.022618 11.8613577,217.567956 C11.4067214,217.113295 10.6696103,217.113295 10.214974,217.567956 L6.92220677,220.860907 Z" id="Combined-Shape" fill-rule="nonzero" transform="translate(6.950076, 222.479511) rotate(-164.000000) translate(-6.950076, -222.479511) "></path>
                    <path d="M995.545723,5.82514219 L992.308694,2.58793367 C991.854059,2.13327207 991.116946,2.13327207 990.66231,2.58793367 C990.207675,3.04259526 990.207675,3.77974735 990.66231,4.23440894 L993.899339,7.47161747 L990.71805,10.653084 C990.263414,11.1077456 990.263414,11.8448977 990.71805,12.2995593 C991.172685,12.7542208 991.909798,12.7542208 992.364433,12.2995593 L995.545723,9.11809274 L998.782751,12.3553013 C999.237387,12.8099629 999.9745,12.8099629 1000.42914,12.3553013 C1000.88377,11.9006397 1000.88377,11.1634876 1000.42914,10.708826 L997.192107,7.47161747 L1000.48487,4.17866692 C1000.93951,3.72400532 1000.93951,2.98685323 1000.48487,2.53219163 C1000.03024,2.07753004 999.293126,2.07753004 998.838491,2.53219163 L995.545723,5.82514219 Z" id="Combined-Shape-Copy-2" fill-rule="nonzero" transform="translate(995.573592, 7.443746) rotate(-164.000000) translate(-995.573592, -7.443746) "></path>
                    <path d="M359.193585,67.234899 C359.044379,67.072411 358.953297,66.8556888 358.953297,66.617692 L358.953297,61.9764059 L353.59388,67.3361213 C353.237441,67.6925797 352.65954,67.6925797 352.303102,67.3361213 C352.254755,67.2877718 352.212966,67.2353476 352.177734,67.179954 C352.074957,67.0322606 352.014701,66.8527581 352.014701,66.6591815 L352.014701,59.9378856 C352.014701,59.4337774 352.423339,59.0251169 352.927419,59.0251169 C353.431499,59.0251169 353.840137,59.4337774 353.840137,59.9378856 L353.840137,64.5081508 L359.08705,59.2609456 C359.264803,59.0831831 359.497631,58.9940692 359.730604,58.9936037 C359.774787,58.9870323 359.820003,58.9836274 359.866014,58.9836274 C360.370094,58.9836274 360.778732,59.3922879 360.778732,59.896396 L360.778732,64.4732746 L366.032258,59.2194561 C366.388697,58.8629979 366.966597,58.8629979 367.323036,59.2194561 C367.679474,59.5759144 367.679474,60.1538476 367.323036,60.5103059 L360.539087,67.2946319 C360.182649,67.6510902 359.604748,67.6510902 359.24831,67.2946319 C359.229025,67.2753458 359.210783,67.2554116 359.193585,67.234899 Z" id="Combined-Shape" fill-rule="nonzero" transform="translate(359.802533, 63.277789) rotate(141.000000) translate(-359.802533, -63.277789) "></path>
                    <path d="M1010.17645,399.655237 C1010.02725,399.492749 1009.93616,399.276026 1009.93616,399.03803 L1009.93616,394.396743 L1004.57675,399.756459 C1004.22031,400.112917 1003.6424,400.112917 1003.28597,399.756459 C1003.23762,399.70811 1003.19583,399.655685 1003.1606,399.600292 C1003.05782,399.452598 1002.99757,399.273096 1002.99757,399.079519 L1002.99757,392.358223 C1002.99757,391.854115 1003.40621,391.445454 1003.91028,391.445454 C1004.41436,391.445454 1004.823,391.854115 1004.823,392.358223 L1004.823,396.928489 L1010.06992,391.681283 C1010.24767,391.503521 1010.4805,391.414407 1010.71347,391.413941 C1010.75765,391.40737 1010.80287,391.403965 1010.84888,391.403965 C1011.35296,391.403965 1011.7616,391.812626 1011.7616,392.316734 L1011.7616,396.893613 L1017.01513,391.639794 C1017.37156,391.283335 1017.94946,391.283335 1018.3059,391.639794 C1018.66234,391.996252 1018.66234,392.574185 1018.3059,392.930643 L1011.52195,399.714969 C1011.16552,400.071428 1010.58762,400.071428 1010.23118,399.714969 C1010.21189,399.695683 1010.19365,399.675749 1010.17645,399.655237 Z" id="Combined-Shape-Copy" fill-rule="nonzero" transform="translate(1010.785399, 395.698126) rotate(41.000000) translate(-1010.785399, -395.698126) "></path>
                    <path d="M516.148127,396.438099 L523.576883,396.438099 L523.576883,389.008928 L516.148127,389.008928 L516.148127,396.438099 Z M515.016962,386.746473 L524.708048,386.746473 C525.332773,386.746473 525.839213,387.252941 525.839213,387.877701 L525.839213,397.569327 C525.839213,398.194086 525.332773,398.700555 524.708048,398.700555 L515.016962,398.700555 C514.392237,398.700555 513.885797,398.194086 513.885797,397.569327 L513.885797,387.877701 C513.885797,387.252941 514.392237,386.746473 515.016962,386.746473 Z" id="Rectangle-15-Copy" fill-rule="nonzero" transform="translate(519.862505, 392.723514) rotate(172.000000) translate(-519.862505, -392.723514) "></path>
                    <path d="M774.479606,158.0095 L781.908365,158.0095 L781.908365,150.580329 L774.479606,150.580329 L774.479606,158.0095 Z M773.348444,148.317874 L783.039527,148.317874 C783.664249,148.317874 784.17069,148.824341 784.17069,149.449101 L784.17069,159.140727 C784.17069,159.765487 783.664249,160.271955 783.039527,160.271955 L773.348444,160.271955 C772.723715,160.271955 772.217274,159.765487 772.217274,159.140727 L772.217274,149.449101 C772.217274,148.824341 772.723715,148.317874 773.348444,148.317874 Z" id="Rectangle-15-Copy-2" fill-rule="nonzero" transform="translate(778.193982, 154.294914) rotate(-121.000000) translate(-778.193982, -154.294914) "></path>
                    <path d="M985.787825,194.258673 C985.646956,194.258673 985.505123,194.228761 985.37005,194.165077 C984.875077,193.934465 984.66185,193.345874 984.892449,192.850879 C985.429867,191.698784 986.373492,190.863178 987.547716,190.499409 C988.721932,190.13564 989.969485,190.290025 991.062658,190.931686 C991.671478,191.2887 992.356524,191.375541 992.990432,191.178701 C993.62723,190.980896 994.141495,190.519672 994.440599,189.879941 C994.978988,188.728811 995.922605,187.893205 997.096829,187.528472 C998.269126,187.163738 999.518606,187.318123 1000.61178,187.961713 C1001.08263,188.238641 1001.2399,188.844599 1000.96298,189.315473 C1000.68607,189.787311 1000.07918,189.941695 999.609299,189.666698 C999.001443,189.308718 998.317367,189.219947 997.683459,189.417753 C997.046661,189.615557 996.531425,190.077746 996.231358,190.718442 C995.69394,191.867642 994.752242,192.702284 993.578026,193.067017 C992.404765,193.432715 991.155286,193.279296 990.06115,192.63667 C989.451359,192.279655 988.768246,192.19185 988.134339,192.387725 C987.498504,192.58553 986.983275,193.046754 986.684172,193.68745 C986.516288,194.047359 986.160257,194.258673 985.787825,194.258673" id="Fill-1" fill-rule="nonzero" transform="translate(992.949581, 190.796815) rotate(69.000000) translate(-992.949581, -190.796815) "></path>
                    <path d="M166.246751,375.531937 C166.105884,375.531937 165.964051,375.502025 165.828972,375.438341 C165.334004,375.20773 165.120772,374.619138 165.351371,374.124143 C165.888792,372.972048 166.832415,372.136442 168.006638,371.772674 C169.180859,371.408905 170.42841,371.563289 171.521585,372.20495 C172.130405,372.561965 172.815448,372.648806 173.449354,372.451965 C174.086155,372.25416 174.60042,371.792936 174.899524,371.153205 C175.43791,370.002076 176.381533,369.166469 177.555755,368.801736 C178.728047,368.437002 179.977528,368.591387 181.070702,369.234977 C181.541549,369.511905 181.698819,370.117864 181.421907,370.588737 C181.144995,371.060575 180.538105,371.214959 180.068223,370.939962 C179.460368,370.581983 178.77629,370.493212 178.142383,370.691017 C177.505582,370.888822 176.990353,371.35101 176.690284,371.991706 C176.152863,373.140907 175.21117,373.975548 174.036948,374.340281 C172.863691,374.70598 171.614211,374.55256 170.520071,373.909934 C169.910286,373.55292 169.227172,373.465114 168.593266,373.66099 C167.95743,373.858794 167.4422,374.320018 167.143097,374.960714 C166.975213,375.320623 166.619184,375.531937 166.246751,375.531937" id="Fill-1-Copy" fill-rule="nonzero" transform="translate(173.408503, 372.070079) rotate(156.000000) translate(-173.408503, -372.070079) "></path>
                    <path d="M58.3926763,61.3699452 C55.0918315,61.3699452 52.4159682,58.6939329 52.4159682,55.3929044 C52.4159682,52.0918759 55.0918315,49.4158636 58.3926763,49.4158636 C61.693521,49.4158636 64.3693843,52.0918759 64.3693843,55.3929044 C64.3693843,58.6939329 61.693521,61.3699452 58.3926763,61.3699452 Z M58.3926763,59.160915 C60.4735752,59.160915 62.1604771,57.4739192 62.1604771,55.3929044 C62.1604771,53.3118896 60.4735752,51.6248938 58.3926763,51.6248938 C56.3117773,51.6248938 54.6248754,53.3118896 54.6248754,55.3929044 C54.6248754,57.4739192 56.3117773,59.160915 58.3926763,59.160915 Z" id="Oval" fill-rule="nonzero" transform="translate(58.392676, 55.392904) rotate(-164.000000) translate(-58.392676, -55.392904) "></path>
                    <path d="M1147.77231,87.5665436 L1156.28337,87.5665436 L1152.02784,81.0982951 L1147.77231,87.5665436 Z M1152.9549,78.4692282 L1159.26894,88.0663366 C1159.75443,88.8042704 1159.22517,89.7861055 1158.34188,89.7861055 L1145.7138,89.7861055 C1144.83051,89.7861055 1144.30125,88.8042704 1144.78674,88.0663366 L1151.10078,78.4692282 C1151.53921,77.8028375 1152.51647,77.8028375 1152.9549,78.4692282 Z" id="Rectangle-15-Copy-4" fill-rule="nonzero" transform="translate(1152.027841, 83.877770) rotate(-163.000000) translate(-1152.027841, -83.877770) "></path>
                    <path d="M1127.21295,291.680255 L1137.23379,291.680255 L1137.23379,285.476653 L1127.21295,291.680255 Z M1139.38314,283.547362 L1139.38314,292.75499 C1139.38314,293.34855 1138.90199,293.829724 1138.30846,293.829724 L1123.43515,293.829724 C1122.35301,293.829724 1121.94939,292.410784 1122.8695,291.841175 L1137.74281,282.633548 C1138.45875,282.190331 1139.38314,282.705301 1139.38314,283.547362 Z" id="Rectangle-15-Copy-6" fill-rule="nonzero" transform="translate(1130.870858, 288.150323) rotate(-131.000000) translate(-1130.870858, -288.150323) "></path>
                    <path d="M440.212954,202.680255 L450.233786,202.680255 L450.233786,196.476653 L440.212954,202.680255 Z M452.38314,194.547362 L452.38314,203.75499 C452.38314,204.34855 451.90199,204.829724 451.308463,204.829724 L436.435146,204.829724 C435.353014,204.829724 434.949394,203.410784 435.869496,202.841175 L450.742813,193.633548 C451.45875,193.190331 452.38314,193.705301 452.38314,194.547362 Z" id="Rectangle-15-Copy-6" fill-rule="nonzero" transform="translate(443.870858, 199.150323) rotate(-131.000000) translate(-443.870858, -199.150323) "></path>
                    <path d="M605.03521,11.4639437 C603.600894,11.4639437 602.387995,12.2933755 601.988915,13.4339351 L608.081505,13.4339351 C607.682425,12.2933755 606.469527,11.4639437 605.03521,11.4639437 Z M608.257687,15.0677921 L601.050391,15.0677921 C600.59924,15.0677921 600.233508,14.7020407 600.233508,14.2508636 C600.233508,11.809336 602.212647,9.83008679 604.654039,9.83008679 C607.095431,9.83008679 609.074569,11.809336 609.074569,14.2508636 C609.074569,14.7020407 608.708838,15.0677921 608.257687,15.0677921 Z M619.449801,11.4639437 C618.015484,11.4639437 616.802586,12.2933755 616.403507,13.4339351 L622.496096,13.4339351 C622.097017,12.2933755 620.884118,11.4639437 619.449801,11.4639437 Z M622.672278,15.0677921 L615.464982,15.0677921 C615.01383,15.0677921 614.648099,14.7020407 614.648099,14.2508636 C614.648099,11.809336 616.627238,9.83008679 619.06863,9.83008679 C621.510022,9.83008679 623.489161,11.809336 623.489161,14.2508636 C623.489161,14.7020407 623.12343,15.0677921 622.672278,15.0677921 Z M612.242506,17.0377835 C613.676823,17.0377835 614.889721,16.2083516 615.288801,15.0677921 L609.196211,15.0677921 C609.595291,16.2083516 610.808189,17.0377835 612.242506,17.0377835 Z M608.257687,13.4339351 L615.464982,13.4339351 C615.916134,13.4339351 616.281865,13.7996865 616.281865,14.2508636 C616.281865,16.6923912 614.302726,18.6716404 611.861335,18.6716404 C609.419943,18.6716404 607.440804,16.6923912 607.440804,14.2508636 C607.440804,13.7996865 607.806534,13.4339351 608.257687,13.4339351 Z M626.657097,17.0377835 C628.091414,17.0377835 629.304312,16.2083516 629.703392,15.0677921 L623.610802,15.0677921 C624.009882,16.2083516 625.22278,17.0377835 626.657097,17.0377835 Z M622.672278,13.4339351 L629.879573,13.4339351 C630.330725,13.4339351 630.696456,13.7996865 630.696456,14.2508636 C630.696456,16.6923912 628.717317,18.6716404 626.275926,18.6716404 C623.834534,18.6716404 621.855395,16.6923912 621.855395,14.2508636 C621.855395,13.7996865 622.221126,13.4339351 622.672278,13.4339351 Z" id="Combined-Shape-Copy-3" fill-rule="nonzero" transform="translate(615.464982, 14.250864) rotate(29.000000) translate(-615.464982, -14.250864) "></path>
                    <path d="M187.03521,195.463944 C185.600894,195.463944 184.387995,196.293375 183.988915,197.433935 L190.081505,197.433935 C189.682425,196.293375 188.469527,195.463944 187.03521,195.463944 Z M190.257687,199.067792 L183.050391,199.067792 C182.59924,199.067792 182.233508,198.702041 182.233508,198.250864 C182.233508,195.809336 184.212647,193.830087 186.654039,193.830087 C189.095431,193.830087 191.074569,195.809336 191.074569,198.250864 C191.074569,198.702041 190.708838,199.067792 190.257687,199.067792 Z M201.449801,195.463944 C200.015484,195.463944 198.802586,196.293375 198.403507,197.433935 L204.496096,197.433935 C204.097017,196.293375 202.884118,195.463944 201.449801,195.463944 Z M204.672278,199.067792 L197.464982,199.067792 C197.01383,199.067792 196.648099,198.702041 196.648099,198.250864 C196.648099,195.809336 198.627238,193.830087 201.06863,193.830087 C203.510022,193.830087 205.489161,195.809336 205.489161,198.250864 C205.489161,198.702041 205.12343,199.067792 204.672278,199.067792 Z M194.242506,201.037783 C195.676823,201.037783 196.889721,200.208352 197.288801,199.067792 L191.196211,199.067792 C191.595291,200.208352 192.808189,201.037783 194.242506,201.037783 Z M190.257687,197.433935 L197.464982,197.433935 C197.916134,197.433935 198.281865,197.799686 198.281865,198.250864 C198.281865,200.692391 196.302726,202.67164 193.861335,202.67164 C191.419943,202.67164 189.440804,200.692391 189.440804,198.250864 C189.440804,197.799686 189.806534,197.433935 190.257687,197.433935 Z M208.657097,201.037783 C210.091414,201.037783 211.304312,200.208352 211.703392,199.067792 L205.610802,199.067792 C206.009882,200.208352 207.22278,201.037783 208.657097,201.037783 Z M204.672278,197.433935 L211.879573,197.433935 C212.330725,197.433935 212.696456,197.799686 212.696456,198.250864 C212.696456,200.692391 210.717317,202.67164 208.275926,202.67164 C205.834534,202.67164 203.855395,200.692391 203.855395,198.250864 C203.855395,197.799686 204.221126,197.433935 204.672278,197.433935 Z" id="Combined-Shape-Copy-3" fill-rule="nonzero" transform="translate(197.464982, 198.250864) rotate(-39.000000) translate(-197.464982, -198.250864) "></path>
                    <path d="M798.31041,337.78455 C798.31041,334.483521 795.634547,331.807509 792.333701,331.807509 C789.032856,331.807509 786.356993,334.483521 786.356993,337.78455 C786.356993,338.394556 786.851474,338.889065 787.461446,338.889065 C788.071418,338.889065 788.565898,338.394556 788.565898,337.78455 C788.565898,335.703535 790.2528,334.016539 792.333701,334.016539 C794.414596,334.016539 796.101498,335.703535 796.101498,337.78455 C796.101498,338.394556 796.595985,338.889065 797.205957,338.889065 C797.815929,338.889065 798.31041,338.394556 798.31041,337.78455 Z" id="Oval-Copy-8" fill-rule="nonzero" transform="translate(792.333701, 335.348287) rotate(-91.000000) translate(-792.333701, -335.348287) "></path>
                </g>
            </g>
            <g id="Memphis-shapes" transform="translate(2773.500000, 202.500000) scale(-1, 1) rotate(-180.000000) translate(-2773.500000, -202.500000) translate(2137.000000, 0.000000)">
                <g transform="translate(50.000000, 0.000000)">
                    <path d="M6.92220677,220.860907 L3.68517845,217.623698 C3.23054217,217.169036 2.49343112,217.169036 2.03879484,217.623698 C1.58415855,218.07836 1.58415855,218.815512 2.03879484,219.270173 L5.27582315,222.507382 L2.09453377,225.688849 C1.63989749,226.14351 1.63989749,226.880662 2.09453377,227.335324 C2.54917005,227.789986 3.28628111,227.789986 3.74091739,227.335324 L6.92220677,224.153858 L10.1592351,227.391066 C10.6138714,227.845727 11.3509824,227.845727 11.8056187,227.391066 C12.260255,226.936404 12.260255,226.199253 11.8056187,225.74459 L8.56859039,222.507382 L11.8613577,219.214431 C12.3159939,218.75977 12.3159939,218.022618 11.8613577,217.567956 C11.4067214,217.113295 10.6696103,217.113295 10.214974,217.567956 L6.92220677,220.860907 Z" id="Combined-Shape" fill-rule="nonzero" transform="translate(6.950076, 222.479511) rotate(-164.000000) translate(-6.950076, -222.479511) "></path>
                    <path d="M995.545723,5.82514219 L992.308694,2.58793367 C991.854059,2.13327207 991.116946,2.13327207 990.66231,2.58793367 C990.207675,3.04259526 990.207675,3.77974735 990.66231,4.23440894 L993.899339,7.47161747 L990.71805,10.653084 C990.263414,11.1077456 990.263414,11.8448977 990.71805,12.2995593 C991.172685,12.7542208 991.909798,12.7542208 992.364433,12.2995593 L995.545723,9.11809274 L998.782751,12.3553013 C999.237387,12.8099629 999.9745,12.8099629 1000.42914,12.3553013 C1000.88377,11.9006397 1000.88377,11.1634876 1000.42914,10.708826 L997.192107,7.47161747 L1000.48487,4.17866692 C1000.93951,3.72400532 1000.93951,2.98685323 1000.48487,2.53219163 C1000.03024,2.07753004 999.293126,2.07753004 998.838491,2.53219163 L995.545723,5.82514219 Z" id="Combined-Shape-Copy-2" fill-rule="nonzero" transform="translate(995.573592, 7.443746) rotate(-164.000000) translate(-995.573592, -7.443746) "></path>
                    <path d="M359.193585,67.234899 C359.044379,67.072411 358.953297,66.8556888 358.953297,66.617692 L358.953297,61.9764059 L353.59388,67.3361213 C353.237441,67.6925797 352.65954,67.6925797 352.303102,67.3361213 C352.254755,67.2877718 352.212966,67.2353476 352.177734,67.179954 C352.074957,67.0322606 352.014701,66.8527581 352.014701,66.6591815 L352.014701,59.9378856 C352.014701,59.4337774 352.423339,59.0251169 352.927419,59.0251169 C353.431499,59.0251169 353.840137,59.4337774 353.840137,59.9378856 L353.840137,64.5081508 L359.08705,59.2609456 C359.264803,59.0831831 359.497631,58.9940692 359.730604,58.9936037 C359.774787,58.9870323 359.820003,58.9836274 359.866014,58.9836274 C360.370094,58.9836274 360.778732,59.3922879 360.778732,59.896396 L360.778732,64.4732746 L366.032258,59.2194561 C366.388697,58.8629979 366.966597,58.8629979 367.323036,59.2194561 C367.679474,59.5759144 367.679474,60.1538476 367.323036,60.5103059 L360.539087,67.2946319 C360.182649,67.6510902 359.604748,67.6510902 359.24831,67.2946319 C359.229025,67.2753458 359.210783,67.2554116 359.193585,67.234899 Z" id="Combined-Shape" fill-rule="nonzero" transform="translate(359.802533, 63.277789) rotate(141.000000) translate(-359.802533, -63.277789) "></path>
                    <path d="M1010.17645,399.655237 C1010.02725,399.492749 1009.93616,399.276026 1009.93616,399.03803 L1009.93616,394.396743 L1004.57675,399.756459 C1004.22031,400.112917 1003.6424,400.112917 1003.28597,399.756459 C1003.23762,399.70811 1003.19583,399.655685 1003.1606,399.600292 C1003.05782,399.452598 1002.99757,399.273096 1002.99757,399.079519 L1002.99757,392.358223 C1002.99757,391.854115 1003.40621,391.445454 1003.91028,391.445454 C1004.41436,391.445454 1004.823,391.854115 1004.823,392.358223 L1004.823,396.928489 L1010.06992,391.681283 C1010.24767,391.503521 1010.4805,391.414407 1010.71347,391.413941 C1010.75765,391.40737 1010.80287,391.403965 1010.84888,391.403965 C1011.35296,391.403965 1011.7616,391.812626 1011.7616,392.316734 L1011.7616,396.893613 L1017.01513,391.639794 C1017.37156,391.283335 1017.94946,391.283335 1018.3059,391.639794 C1018.66234,391.996252 1018.66234,392.574185 1018.3059,392.930643 L1011.52195,399.714969 C1011.16552,400.071428 1010.58762,400.071428 1010.23118,399.714969 C1010.21189,399.695683 1010.19365,399.675749 1010.17645,399.655237 Z" id="Combined-Shape-Copy" fill-rule="nonzero" transform="translate(1010.785399, 395.698126) rotate(41.000000) translate(-1010.785399, -395.698126) "></path>
                    <path d="M516.148127,396.438099 L523.576883,396.438099 L523.576883,389.008928 L516.148127,389.008928 L516.148127,396.438099 Z M515.016962,386.746473 L524.708048,386.746473 C525.332773,386.746473 525.839213,387.252941 525.839213,387.877701 L525.839213,397.569327 C525.839213,398.194086 525.332773,398.700555 524.708048,398.700555 L515.016962,398.700555 C514.392237,398.700555 513.885797,398.194086 513.885797,397.569327 L513.885797,387.877701 C513.885797,387.252941 514.392237,386.746473 515.016962,386.746473 Z" id="Rectangle-15-Copy" fill-rule="nonzero" transform="translate(519.862505, 392.723514) rotate(172.000000) translate(-519.862505, -392.723514) "></path>
                    <path d="M774.479606,158.0095 L781.908365,158.0095 L781.908365,150.580329 L774.479606,150.580329 L774.479606,158.0095 Z M773.348444,148.317874 L783.039527,148.317874 C783.664249,148.317874 784.17069,148.824341 784.17069,149.449101 L784.17069,159.140727 C784.17069,159.765487 783.664249,160.271955 783.039527,160.271955 L773.348444,160.271955 C772.723715,160.271955 772.217274,159.765487 772.217274,159.140727 L772.217274,149.449101 C772.217274,148.824341 772.723715,148.317874 773.348444,148.317874 Z" id="Rectangle-15-Copy-2" fill-rule="nonzero" transform="translate(778.193982, 154.294914) rotate(-121.000000) translate(-778.193982, -154.294914) "></path>
                    <path d="M985.787825,194.258673 C985.646956,194.258673 985.505123,194.228761 985.37005,194.165077 C984.875077,193.934465 984.66185,193.345874 984.892449,192.850879 C985.429867,191.698784 986.373492,190.863178 987.547716,190.499409 C988.721932,190.13564 989.969485,190.290025 991.062658,190.931686 C991.671478,191.2887 992.356524,191.375541 992.990432,191.178701 C993.62723,190.980896 994.141495,190.519672 994.440599,189.879941 C994.978988,188.728811 995.922605,187.893205 997.096829,187.528472 C998.269126,187.163738 999.518606,187.318123 1000.61178,187.961713 C1001.08263,188.238641 1001.2399,188.844599 1000.96298,189.315473 C1000.68607,189.787311 1000.07918,189.941695 999.609299,189.666698 C999.001443,189.308718 998.317367,189.219947 997.683459,189.417753 C997.046661,189.615557 996.531425,190.077746 996.231358,190.718442 C995.69394,191.867642 994.752242,192.702284 993.578026,193.067017 C992.404765,193.432715 991.155286,193.279296 990.06115,192.63667 C989.451359,192.279655 988.768246,192.19185 988.134339,192.387725 C987.498504,192.58553 986.983275,193.046754 986.684172,193.68745 C986.516288,194.047359 986.160257,194.258673 985.787825,194.258673" id="Fill-1" fill-rule="nonzero" transform="translate(992.949581, 190.796815) rotate(69.000000) translate(-992.949581, -190.796815) "></path>
                    <path d="M166.246751,375.531937 C166.105884,375.531937 165.964051,375.502025 165.828972,375.438341 C165.334004,375.20773 165.120772,374.619138 165.351371,374.124143 C165.888792,372.972048 166.832415,372.136442 168.006638,371.772674 C169.180859,371.408905 170.42841,371.563289 171.521585,372.20495 C172.130405,372.561965 172.815448,372.648806 173.449354,372.451965 C174.086155,372.25416 174.60042,371.792936 174.899524,371.153205 C175.43791,370.002076 176.381533,369.166469 177.555755,368.801736 C178.728047,368.437002 179.977528,368.591387 181.070702,369.234977 C181.541549,369.511905 181.698819,370.117864 181.421907,370.588737 C181.144995,371.060575 180.538105,371.214959 180.068223,370.939962 C179.460368,370.581983 178.77629,370.493212 178.142383,370.691017 C177.505582,370.888822 176.990353,371.35101 176.690284,371.991706 C176.152863,373.140907 175.21117,373.975548 174.036948,374.340281 C172.863691,374.70598 171.614211,374.55256 170.520071,373.909934 C169.910286,373.55292 169.227172,373.465114 168.593266,373.66099 C167.95743,373.858794 167.4422,374.320018 167.143097,374.960714 C166.975213,375.320623 166.619184,375.531937 166.246751,375.531937" id="Fill-1-Copy" fill-rule="nonzero" transform="translate(173.408503, 372.070079) rotate(156.000000) translate(-173.408503, -372.070079) "></path>
                    <path d="M58.3926763,61.3699452 C55.0918315,61.3699452 52.4159682,58.6939329 52.4159682,55.3929044 C52.4159682,52.0918759 55.0918315,49.4158636 58.3926763,49.4158636 C61.693521,49.4158636 64.3693843,52.0918759 64.3693843,55.3929044 C64.3693843,58.6939329 61.693521,61.3699452 58.3926763,61.3699452 Z M58.3926763,59.160915 C60.4735752,59.160915 62.1604771,57.4739192 62.1604771,55.3929044 C62.1604771,53.3118896 60.4735752,51.6248938 58.3926763,51.6248938 C56.3117773,51.6248938 54.6248754,53.3118896 54.6248754,55.3929044 C54.6248754,57.4739192 56.3117773,59.160915 58.3926763,59.160915 Z" id="Oval" fill-rule="nonzero" transform="translate(58.392676, 55.392904) rotate(-164.000000) translate(-58.392676, -55.392904) "></path>
                    <path d="M1147.77231,87.5665436 L1156.28337,87.5665436 L1152.02784,81.0982951 L1147.77231,87.5665436 Z M1152.9549,78.4692282 L1159.26894,88.0663366 C1159.75443,88.8042704 1159.22517,89.7861055 1158.34188,89.7861055 L1145.7138,89.7861055 C1144.83051,89.7861055 1144.30125,88.8042704 1144.78674,88.0663366 L1151.10078,78.4692282 C1151.53921,77.8028375 1152.51647,77.8028375 1152.9549,78.4692282 Z" id="Rectangle-15-Copy-4" fill-rule="nonzero" transform="translate(1152.027841, 83.877770) rotate(-163.000000) translate(-1152.027841, -83.877770) "></path>
                    <path d="M1127.21295,291.680255 L1137.23379,291.680255 L1137.23379,285.476653 L1127.21295,291.680255 Z M1139.38314,283.547362 L1139.38314,292.75499 C1139.38314,293.34855 1138.90199,293.829724 1138.30846,293.829724 L1123.43515,293.829724 C1122.35301,293.829724 1121.94939,292.410784 1122.8695,291.841175 L1137.74281,282.633548 C1138.45875,282.190331 1139.38314,282.705301 1139.38314,283.547362 Z" id="Rectangle-15-Copy-6" fill-rule="nonzero" transform="translate(1130.870858, 288.150323) rotate(-131.000000) translate(-1130.870858, -288.150323) "></path>
                    <path d="M440.212954,202.680255 L450.233786,202.680255 L450.233786,196.476653 L440.212954,202.680255 Z M452.38314,194.547362 L452.38314,203.75499 C452.38314,204.34855 451.90199,204.829724 451.308463,204.829724 L436.435146,204.829724 C435.353014,204.829724 434.949394,203.410784 435.869496,202.841175 L450.742813,193.633548 C451.45875,193.190331 452.38314,193.705301 452.38314,194.547362 Z" id="Rectangle-15-Copy-6" fill-rule="nonzero" transform="translate(443.870858, 199.150323) rotate(-131.000000) translate(-443.870858, -199.150323) "></path>
                    <path d="M605.03521,11.4639437 C603.600894,11.4639437 602.387995,12.2933755 601.988915,13.4339351 L608.081505,13.4339351 C607.682425,12.2933755 606.469527,11.4639437 605.03521,11.4639437 Z M608.257687,15.0677921 L601.050391,15.0677921 C600.59924,15.0677921 600.233508,14.7020407 600.233508,14.2508636 C600.233508,11.809336 602.212647,9.83008679 604.654039,9.83008679 C607.095431,9.83008679 609.074569,11.809336 609.074569,14.2508636 C609.074569,14.7020407 608.708838,15.0677921 608.257687,15.0677921 Z M619.449801,11.4639437 C618.015484,11.4639437 616.802586,12.2933755 616.403507,13.4339351 L622.496096,13.4339351 C622.097017,12.2933755 620.884118,11.4639437 619.449801,11.4639437 Z M622.672278,15.0677921 L615.464982,15.0677921 C615.01383,15.0677921 614.648099,14.7020407 614.648099,14.2508636 C614.648099,11.809336 616.627238,9.83008679 619.06863,9.83008679 C621.510022,9.83008679 623.489161,11.809336 623.489161,14.2508636 C623.489161,14.7020407 623.12343,15.0677921 622.672278,15.0677921 Z M612.242506,17.0377835 C613.676823,17.0377835 614.889721,16.2083516 615.288801,15.0677921 L609.196211,15.0677921 C609.595291,16.2083516 610.808189,17.0377835 612.242506,17.0377835 Z M608.257687,13.4339351 L615.464982,13.4339351 C615.916134,13.4339351 616.281865,13.7996865 616.281865,14.2508636 C616.281865,16.6923912 614.302726,18.6716404 611.861335,18.6716404 C609.419943,18.6716404 607.440804,16.6923912 607.440804,14.2508636 C607.440804,13.7996865 607.806534,13.4339351 608.257687,13.4339351 Z M626.657097,17.0377835 C628.091414,17.0377835 629.304312,16.2083516 629.703392,15.0677921 L623.610802,15.0677921 C624.009882,16.2083516 625.22278,17.0377835 626.657097,17.0377835 Z M622.672278,13.4339351 L629.879573,13.4339351 C630.330725,13.4339351 630.696456,13.7996865 630.696456,14.2508636 C630.696456,16.6923912 628.717317,18.6716404 626.275926,18.6716404 C623.834534,18.6716404 621.855395,16.6923912 621.855395,14.2508636 C621.855395,13.7996865 622.221126,13.4339351 622.672278,13.4339351 Z" id="Combined-Shape-Copy-3" fill-rule="nonzero" transform="translate(615.464982, 14.250864) rotate(29.000000) translate(-615.464982, -14.250864) "></path>
                    <path d="M187.03521,195.463944 C185.600894,195.463944 184.387995,196.293375 183.988915,197.433935 L190.081505,197.433935 C189.682425,196.293375 188.469527,195.463944 187.03521,195.463944 Z M190.257687,199.067792 L183.050391,199.067792 C182.59924,199.067792 182.233508,198.702041 182.233508,198.250864 C182.233508,195.809336 184.212647,193.830087 186.654039,193.830087 C189.095431,193.830087 191.074569,195.809336 191.074569,198.250864 C191.074569,198.702041 190.708838,199.067792 190.257687,199.067792 Z M201.449801,195.463944 C200.015484,195.463944 198.802586,196.293375 198.403507,197.433935 L204.496096,197.433935 C204.097017,196.293375 202.884118,195.463944 201.449801,195.463944 Z M204.672278,199.067792 L197.464982,199.067792 C197.01383,199.067792 196.648099,198.702041 196.648099,198.250864 C196.648099,195.809336 198.627238,193.830087 201.06863,193.830087 C203.510022,193.830087 205.489161,195.809336 205.489161,198.250864 C205.489161,198.702041 205.12343,199.067792 204.672278,199.067792 Z M194.242506,201.037783 C195.676823,201.037783 196.889721,200.208352 197.288801,199.067792 L191.196211,199.067792 C191.595291,200.208352 192.808189,201.037783 194.242506,201.037783 Z M190.257687,197.433935 L197.464982,197.433935 C197.916134,197.433935 198.281865,197.799686 198.281865,198.250864 C198.281865,200.692391 196.302726,202.67164 193.861335,202.67164 C191.419943,202.67164 189.440804,200.692391 189.440804,198.250864 C189.440804,197.799686 189.806534,197.433935 190.257687,197.433935 Z M208.657097,201.037783 C210.091414,201.037783 211.304312,200.208352 211.703392,199.067792 L205.610802,199.067792 C206.009882,200.208352 207.22278,201.037783 208.657097,201.037783 Z M204.672278,197.433935 L211.879573,197.433935 C212.330725,197.433935 212.696456,197.799686 212.696456,198.250864 C212.696456,200.692391 210.717317,202.67164 208.275926,202.67164 C205.834534,202.67164 203.855395,200.692391 203.855395,198.250864 C203.855395,197.799686 204.221126,197.433935 204.672278,197.433935 Z" id="Combined-Shape-Copy-3" fill-rule="nonzero" transform="translate(197.464982, 198.250864) rotate(-39.000000) translate(-197.464982, -198.250864) "></path>
                    <path d="M798.31041,337.78455 C798.31041,334.483521 795.634547,331.807509 792.333701,331.807509 C789.032856,331.807509 786.356993,334.483521 786.356993,337.78455 C786.356993,338.394556 786.851474,338.889065 787.461446,338.889065 C788.071418,338.889065 788.565898,338.394556 788.565898,337.78455 C788.565898,335.703535 790.2528,334.016539 792.333701,334.016539 C794.414596,334.016539 796.101498,335.703535 796.101498,337.78455 C796.101498,338.394556 796.595985,338.889065 797.205957,338.889065 C797.815929,338.889065 798.31041,338.394556 798.31041,337.78455 Z" id="Oval-Copy-8" fill-rule="nonzero" transform="translate(792.333701, 335.348287) rotate(-91.000000) translate(-792.333701, -335.348287) "></path>
                </g>
            </g>
            <g id="Memphis-shapes" transform="translate(227.500000, 202.500000) rotate(-180.000000) translate(-227.500000, -202.500000) translate(-409.000000, 0.000000)">
                <g transform="translate(50.000000, 0.000000)">
                    <path d="M6.92220677,220.860907 L3.68517845,217.623698 C3.23054217,217.169036 2.49343112,217.169036 2.03879484,217.623698 C1.58415855,218.07836 1.58415855,218.815512 2.03879484,219.270173 L5.27582315,222.507382 L2.09453377,225.688849 C1.63989749,226.14351 1.63989749,226.880662 2.09453377,227.335324 C2.54917005,227.789986 3.28628111,227.789986 3.74091739,227.335324 L6.92220677,224.153858 L10.1592351,227.391066 C10.6138714,227.845727 11.3509824,227.845727 11.8056187,227.391066 C12.260255,226.936404 12.260255,226.199253 11.8056187,225.74459 L8.56859039,222.507382 L11.8613577,219.214431 C12.3159939,218.75977 12.3159939,218.022618 11.8613577,217.567956 C11.4067214,217.113295 10.6696103,217.113295 10.214974,217.567956 L6.92220677,220.860907 Z" id="Combined-Shape" fill-rule="nonzero" transform="translate(6.950076, 222.479511) rotate(-164.000000) translate(-6.950076, -222.479511) "></path>
                    <path d="M995.545723,5.82514219 L992.308694,2.58793367 C991.854059,2.13327207 991.116946,2.13327207 990.66231,2.58793367 C990.207675,3.04259526 990.207675,3.77974735 990.66231,4.23440894 L993.899339,7.47161747 L990.71805,10.653084 C990.263414,11.1077456 990.263414,11.8448977 990.71805,12.2995593 C991.172685,12.7542208 991.909798,12.7542208 992.364433,12.2995593 L995.545723,9.11809274 L998.782751,12.3553013 C999.237387,12.8099629 999.9745,12.8099629 1000.42914,12.3553013 C1000.88377,11.9006397 1000.88377,11.1634876 1000.42914,10.708826 L997.192107,7.47161747 L1000.48487,4.17866692 C1000.93951,3.72400532 1000.93951,2.98685323 1000.48487,2.53219163 C1000.03024,2.07753004 999.293126,2.07753004 998.838491,2.53219163 L995.545723,5.82514219 Z" id="Combined-Shape-Copy-2" fill-rule="nonzero" transform="translate(995.573592, 7.443746) rotate(-164.000000) translate(-995.573592, -7.443746) "></path>
                    <path d="M359.193585,67.234899 C359.044379,67.072411 358.953297,66.8556888 358.953297,66.617692 L358.953297,61.9764059 L353.59388,67.3361213 C353.237441,67.6925797 352.65954,67.6925797 352.303102,67.3361213 C352.254755,67.2877718 352.212966,67.2353476 352.177734,67.179954 C352.074957,67.0322606 352.014701,66.8527581 352.014701,66.6591815 L352.014701,59.9378856 C352.014701,59.4337774 352.423339,59.0251169 352.927419,59.0251169 C353.431499,59.0251169 353.840137,59.4337774 353.840137,59.9378856 L353.840137,64.5081508 L359.08705,59.2609456 C359.264803,59.0831831 359.497631,58.9940692 359.730604,58.9936037 C359.774787,58.9870323 359.820003,58.9836274 359.866014,58.9836274 C360.370094,58.9836274 360.778732,59.3922879 360.778732,59.896396 L360.778732,64.4732746 L366.032258,59.2194561 C366.388697,58.8629979 366.966597,58.8629979 367.323036,59.2194561 C367.679474,59.5759144 367.679474,60.1538476 367.323036,60.5103059 L360.539087,67.2946319 C360.182649,67.6510902 359.604748,67.6510902 359.24831,67.2946319 C359.229025,67.2753458 359.210783,67.2554116 359.193585,67.234899 Z" id="Combined-Shape" fill-rule="nonzero" transform="translate(359.802533, 63.277789) rotate(141.000000) translate(-359.802533, -63.277789) "></path>
                    <path d="M1010.17645,399.655237 C1010.02725,399.492749 1009.93616,399.276026 1009.93616,399.03803 L1009.93616,394.396743 L1004.57675,399.756459 C1004.22031,400.112917 1003.6424,400.112917 1003.28597,399.756459 C1003.23762,399.70811 1003.19583,399.655685 1003.1606,399.600292 C1003.05782,399.452598 1002.99757,399.273096 1002.99757,399.079519 L1002.99757,392.358223 C1002.99757,391.854115 1003.40621,391.445454 1003.91028,391.445454 C1004.41436,391.445454 1004.823,391.854115 1004.823,392.358223 L1004.823,396.928489 L1010.06992,391.681283 C1010.24767,391.503521 1010.4805,391.414407 1010.71347,391.413941 C1010.75765,391.40737 1010.80287,391.403965 1010.84888,391.403965 C1011.35296,391.403965 1011.7616,391.812626 1011.7616,392.316734 L1011.7616,396.893613 L1017.01513,391.639794 C1017.37156,391.283335 1017.94946,391.283335 1018.3059,391.639794 C1018.66234,391.996252 1018.66234,392.574185 1018.3059,392.930643 L1011.52195,399.714969 C1011.16552,400.071428 1010.58762,400.071428 1010.23118,399.714969 C1010.21189,399.695683 1010.19365,399.675749 1010.17645,399.655237 Z" id="Combined-Shape-Copy" fill-rule="nonzero" transform="translate(1010.785399, 395.698126) rotate(41.000000) translate(-1010.785399, -395.698126) "></path>
                    <path d="M516.148127,396.438099 L523.576883,396.438099 L523.576883,389.008928 L516.148127,389.008928 L516.148127,396.438099 Z M515.016962,386.746473 L524.708048,386.746473 C525.332773,386.746473 525.839213,387.252941 525.839213,387.877701 L525.839213,397.569327 C525.839213,398.194086 525.332773,398.700555 524.708048,398.700555 L515.016962,398.700555 C514.392237,398.700555 513.885797,398.194086 513.885797,397.569327 L513.885797,387.877701 C513.885797,387.252941 514.392237,386.746473 515.016962,386.746473 Z" id="Rectangle-15-Copy" fill-rule="nonzero" transform="translate(519.862505, 392.723514) rotate(172.000000) translate(-519.862505, -392.723514) "></path>
                    <path d="M774.479606,158.0095 L781.908365,158.0095 L781.908365,150.580329 L774.479606,150.580329 L774.479606,158.0095 Z M773.348444,148.317874 L783.039527,148.317874 C783.664249,148.317874 784.17069,148.824341 784.17069,149.449101 L784.17069,159.140727 C784.17069,159.765487 783.664249,160.271955 783.039527,160.271955 L773.348444,160.271955 C772.723715,160.271955 772.217274,159.765487 772.217274,159.140727 L772.217274,149.449101 C772.217274,148.824341 772.723715,148.317874 773.348444,148.317874 Z" id="Rectangle-15-Copy-2" fill-rule="nonzero" transform="translate(778.193982, 154.294914) rotate(-121.000000) translate(-778.193982, -154.294914) "></path>
                    <path d="M985.787825,194.258673 C985.646956,194.258673 985.505123,194.228761 985.37005,194.165077 C984.875077,193.934465 984.66185,193.345874 984.892449,192.850879 C985.429867,191.698784 986.373492,190.863178 987.547716,190.499409 C988.721932,190.13564 989.969485,190.290025 991.062658,190.931686 C991.671478,191.2887 992.356524,191.375541 992.990432,191.178701 C993.62723,190.980896 994.141495,190.519672 994.440599,189.879941 C994.978988,188.728811 995.922605,187.893205 997.096829,187.528472 C998.269126,187.163738 999.518606,187.318123 1000.61178,187.961713 C1001.08263,188.238641 1001.2399,188.844599 1000.96298,189.315473 C1000.68607,189.787311 1000.07918,189.941695 999.609299,189.666698 C999.001443,189.308718 998.317367,189.219947 997.683459,189.417753 C997.046661,189.615557 996.531425,190.077746 996.231358,190.718442 C995.69394,191.867642 994.752242,192.702284 993.578026,193.067017 C992.404765,193.432715 991.155286,193.279296 990.06115,192.63667 C989.451359,192.279655 988.768246,192.19185 988.134339,192.387725 C987.498504,192.58553 986.983275,193.046754 986.684172,193.68745 C986.516288,194.047359 986.160257,194.258673 985.787825,194.258673" id="Fill-1" fill-rule="nonzero" transform="translate(992.949581, 190.796815) rotate(69.000000) translate(-992.949581, -190.796815) "></path>
                    <path d="M166.246751,375.531937 C166.105884,375.531937 165.964051,375.502025 165.828972,375.438341 C165.334004,375.20773 165.120772,374.619138 165.351371,374.124143 C165.888792,372.972048 166.832415,372.136442 168.006638,371.772674 C169.180859,371.408905 170.42841,371.563289 171.521585,372.20495 C172.130405,372.561965 172.815448,372.648806 173.449354,372.451965 C174.086155,372.25416 174.60042,371.792936 174.899524,371.153205 C175.43791,370.002076 176.381533,369.166469 177.555755,368.801736 C178.728047,368.437002 179.977528,368.591387 181.070702,369.234977 C181.541549,369.511905 181.698819,370.117864 181.421907,370.588737 C181.144995,371.060575 180.538105,371.214959 180.068223,370.939962 C179.460368,370.581983 178.77629,370.493212 178.142383,370.691017 C177.505582,370.888822 176.990353,371.35101 176.690284,371.991706 C176.152863,373.140907 175.21117,373.975548 174.036948,374.340281 C172.863691,374.70598 171.614211,374.55256 170.520071,373.909934 C169.910286,373.55292 169.227172,373.465114 168.593266,373.66099 C167.95743,373.858794 167.4422,374.320018 167.143097,374.960714 C166.975213,375.320623 166.619184,375.531937 166.246751,375.531937" id="Fill-1-Copy" fill-rule="nonzero" transform="translate(173.408503, 372.070079) rotate(156.000000) translate(-173.408503, -372.070079) "></path>
                    <path d="M58.3926763,61.3699452 C55.0918315,61.3699452 52.4159682,58.6939329 52.4159682,55.3929044 C52.4159682,52.0918759 55.0918315,49.4158636 58.3926763,49.4158636 C61.693521,49.4158636 64.3693843,52.0918759 64.3693843,55.3929044 C64.3693843,58.6939329 61.693521,61.3699452 58.3926763,61.3699452 Z M58.3926763,59.160915 C60.4735752,59.160915 62.1604771,57.4739192 62.1604771,55.3929044 C62.1604771,53.3118896 60.4735752,51.6248938 58.3926763,51.6248938 C56.3117773,51.6248938 54.6248754,53.3118896 54.6248754,55.3929044 C54.6248754,57.4739192 56.3117773,59.160915 58.3926763,59.160915 Z" id="Oval" fill-rule="nonzero" transform="translate(58.392676, 55.392904) rotate(-164.000000) translate(-58.392676, -55.392904) "></path>
                    <path d="M1147.77231,87.5665436 L1156.28337,87.5665436 L1152.02784,81.0982951 L1147.77231,87.5665436 Z M1152.9549,78.4692282 L1159.26894,88.0663366 C1159.75443,88.8042704 1159.22517,89.7861055 1158.34188,89.7861055 L1145.7138,89.7861055 C1144.83051,89.7861055 1144.30125,88.8042704 1144.78674,88.0663366 L1151.10078,78.4692282 C1151.53921,77.8028375 1152.51647,77.8028375 1152.9549,78.4692282 Z" id="Rectangle-15-Copy-4" fill-rule="nonzero" transform="translate(1152.027841, 83.877770) rotate(-163.000000) translate(-1152.027841, -83.877770) "></path>
                    <path d="M1127.21295,291.680255 L1137.23379,291.680255 L1137.23379,285.476653 L1127.21295,291.680255 Z M1139.38314,283.547362 L1139.38314,292.75499 C1139.38314,293.34855 1138.90199,293.829724 1138.30846,293.829724 L1123.43515,293.829724 C1122.35301,293.829724 1121.94939,292.410784 1122.8695,291.841175 L1137.74281,282.633548 C1138.45875,282.190331 1139.38314,282.705301 1139.38314,283.547362 Z" id="Rectangle-15-Copy-6" fill-rule="nonzero" transform="translate(1130.870858, 288.150323) rotate(-131.000000) translate(-1130.870858, -288.150323) "></path>
                    <path d="M440.212954,202.680255 L450.233786,202.680255 L450.233786,196.476653 L440.212954,202.680255 Z M452.38314,194.547362 L452.38314,203.75499 C452.38314,204.34855 451.90199,204.829724 451.308463,204.829724 L436.435146,204.829724 C435.353014,204.829724 434.949394,203.410784 435.869496,202.841175 L450.742813,193.633548 C451.45875,193.190331 452.38314,193.705301 452.38314,194.547362 Z" id="Rectangle-15-Copy-6" fill-rule="nonzero" transform="translate(443.870858, 199.150323) rotate(-131.000000) translate(-443.870858, -199.150323) "></path>
                    <path d="M605.03521,11.4639437 C603.600894,11.4639437 602.387995,12.2933755 601.988915,13.4339351 L608.081505,13.4339351 C607.682425,12.2933755 606.469527,11.4639437 605.03521,11.4639437 Z M608.257687,15.0677921 L601.050391,15.0677921 C600.59924,15.0677921 600.233508,14.7020407 600.233508,14.2508636 C600.233508,11.809336 602.212647,9.83008679 604.654039,9.83008679 C607.095431,9.83008679 609.074569,11.809336 609.074569,14.2508636 C609.074569,14.7020407 608.708838,15.0677921 608.257687,15.0677921 Z M619.449801,11.4639437 C618.015484,11.4639437 616.802586,12.2933755 616.403507,13.4339351 L622.496096,13.4339351 C622.097017,12.2933755 620.884118,11.4639437 619.449801,11.4639437 Z M622.672278,15.0677921 L615.464982,15.0677921 C615.01383,15.0677921 614.648099,14.7020407 614.648099,14.2508636 C614.648099,11.809336 616.627238,9.83008679 619.06863,9.83008679 C621.510022,9.83008679 623.489161,11.809336 623.489161,14.2508636 C623.489161,14.7020407 623.12343,15.0677921 622.672278,15.0677921 Z M612.242506,17.0377835 C613.676823,17.0377835 614.889721,16.2083516 615.288801,15.0677921 L609.196211,15.0677921 C609.595291,16.2083516 610.808189,17.0377835 612.242506,17.0377835 Z M608.257687,13.4339351 L615.464982,13.4339351 C615.916134,13.4339351 616.281865,13.7996865 616.281865,14.2508636 C616.281865,16.6923912 614.302726,18.6716404 611.861335,18.6716404 C609.419943,18.6716404 607.440804,16.6923912 607.440804,14.2508636 C607.440804,13.7996865 607.806534,13.4339351 608.257687,13.4339351 Z M626.657097,17.0377835 C628.091414,17.0377835 629.304312,16.2083516 629.703392,15.0677921 L623.610802,15.0677921 C624.009882,16.2083516 625.22278,17.0377835 626.657097,17.0377835 Z M622.672278,13.4339351 L629.879573,13.4339351 C630.330725,13.4339351 630.696456,13.7996865 630.696456,14.2508636 C630.696456,16.6923912 628.717317,18.6716404 626.275926,18.6716404 C623.834534,18.6716404 621.855395,16.6923912 621.855395,14.2508636 C621.855395,13.7996865 622.221126,13.4339351 622.672278,13.4339351 Z" id="Combined-Shape-Copy-3" fill-rule="nonzero" transform="translate(615.464982, 14.250864) rotate(29.000000) translate(-615.464982, -14.250864) "></path>
                    <path d="M187.03521,195.463944 C185.600894,195.463944 184.387995,196.293375 183.988915,197.433935 L190.081505,197.433935 C189.682425,196.293375 188.469527,195.463944 187.03521,195.463944 Z M190.257687,199.067792 L183.050391,199.067792 C182.59924,199.067792 182.233508,198.702041 182.233508,198.250864 C182.233508,195.809336 184.212647,193.830087 186.654039,193.830087 C189.095431,193.830087 191.074569,195.809336 191.074569,198.250864 C191.074569,198.702041 190.708838,199.067792 190.257687,199.067792 Z M201.449801,195.463944 C200.015484,195.463944 198.802586,196.293375 198.403507,197.433935 L204.496096,197.433935 C204.097017,196.293375 202.884118,195.463944 201.449801,195.463944 Z M204.672278,199.067792 L197.464982,199.067792 C197.01383,199.067792 196.648099,198.702041 196.648099,198.250864 C196.648099,195.809336 198.627238,193.830087 201.06863,193.830087 C203.510022,193.830087 205.489161,195.809336 205.489161,198.250864 C205.489161,198.702041 205.12343,199.067792 204.672278,199.067792 Z M194.242506,201.037783 C195.676823,201.037783 196.889721,200.208352 197.288801,199.067792 L191.196211,199.067792 C191.595291,200.208352 192.808189,201.037783 194.242506,201.037783 Z M190.257687,197.433935 L197.464982,197.433935 C197.916134,197.433935 198.281865,197.799686 198.281865,198.250864 C198.281865,200.692391 196.302726,202.67164 193.861335,202.67164 C191.419943,202.67164 189.440804,200.692391 189.440804,198.250864 C189.440804,197.799686 189.806534,197.433935 190.257687,197.433935 Z M208.657097,201.037783 C210.091414,201.037783 211.304312,200.208352 211.703392,199.067792 L205.610802,199.067792 C206.009882,200.208352 207.22278,201.037783 208.657097,201.037783 Z M204.672278,197.433935 L211.879573,197.433935 C212.330725,197.433935 212.696456,197.799686 212.696456,198.250864 C212.696456,200.692391 210.717317,202.67164 208.275926,202.67164 C205.834534,202.67164 203.855395,200.692391 203.855395,198.250864 C203.855395,197.799686 204.221126,197.433935 204.672278,197.433935 Z" id="Combined-Shape-Copy-3" fill-rule="nonzero" transform="translate(197.464982, 198.250864) rotate(-39.000000) translate(-197.464982, -198.250864) "></path>
                    <path d="M798.31041,337.78455 C798.31041,334.483521 795.634547,331.807509 792.333701,331.807509 C789.032856,331.807509 786.356993,334.483521 786.356993,337.78455 C786.356993,338.394556 786.851474,338.889065 787.461446,338.889065 C788.071418,338.889065 788.565898,338.394556 788.565898,337.78455 C788.565898,335.703535 790.2528,334.016539 792.333701,334.016539 C794.414596,334.016539 796.101498,335.703535 796.101498,337.78455 C796.101498,338.394556 796.595985,338.889065 797.205957,338.889065 C797.815929,338.889065 798.31041,338.394556 798.31041,337.78455 Z" id="Oval-Copy-8" fill-rule="nonzero" transform="translate(792.333701, 335.348287) rotate(-91.000000) translate(-792.333701, -335.348287) "></path>
                </g>
            </g>
        </g>
    </g>
</svg>